<?xml version="1.0" standalone="no"?>
<!DOCTYPE svg PUBLIC "-//W3C//DTD SVG 20010904//EN"
 "http://www.w3.org/TR/2001/REC-SVG-20010904/DTD/svg10.dtd">
<svg version="1.0" xmlns="http://www.w3.org/2000/svg"
 width="200.000000pt" height="200.000000pt" viewBox="0 0 200.000000 200.000000"
 preserveAspectRatio="xMidYMid meet">

<g transform="translate(0.000000,200.000000) scale(0.100000,-0.100000)"
fill="#000000" stroke="none">
<path d="M0 1000 l0 -1000 1000 0 1000 0 0 1000 0 1000 -1000 0 -1000 0 0
-1000z m716 466 c28 -7 60 -19 70 -25 18 -12 18 -12 -1 -6 -42 14 -153 17
-204 6 -70 -15 -153 -57 -206 -103 -45 -40 -105 -122 -105 -145 0 -7 17 -20
38 -28 34 -15 38 -15 47 0 52 87 116 174 153 210 60 60 67 49 9 -14 -136 -146
-194 -433 -132 -658 3 -10 -5 2 -16 27 -12 25 -27 67 -33 94 -11 47 -12 49
-66 65 -30 10 -79 30 -109 45 l-54 28 6 51 c3 29 11 68 17 89 l10 36 41 -16
c36 -14 40 -19 35 -42 -3 -15 -8 -50 -12 -78 l-6 -51 57 -16 c31 -9 58 -15 59
-13 2 1 6 42 10 90 l6 86 -68 21 c-37 11 -76 27 -87 35 -20 15 -20 15 9 71 58
112 191 215 312 244 59 14 163 12 220 -3z m281 -46 c8 -14 24 -50 37 -80 20
-46 25 -52 32 -35 4 11 20 48 35 83 25 57 30 62 58 62 17 0 31 -4 31 -9 0 -24
-120 -286 -131 -286 -12 0 -139 263 -139 287 0 5 14 8 32 6 22 -2 36 -11 45
-28z m573 -90 c0 -5 9 -10 20 -10 11 0 20 -7 20 -15 0 -8 -9 -15 -21 -15 -18
0 -20 -5 -17 -52 3 -48 5 -53 26 -50 14 2 22 -2 22 -11 0 -21 -35 -27 -59 -10
-17 11 -21 25 -21 69 0 44 -3 54 -17 54 -14 0 -12 4 7 25 25 26 40 32 40 15z
m-264 -18 c13 -8 34 -46 34 -61 0 -6 -21 -11 -50 -11 -51 0 -60 -9 -41 -39 6
-10 21 -12 50 -8 30 4 41 2 41 -8 0 -33 -92 -35 -114 -3 -23 32 -20 94 4 118
20 20 56 26 76 12z m94 -4 c0 -9 3 -9 12 0 7 7 21 12 33 12 35 0 45 -20 45
-92 0 -54 -3 -68 -15 -68 -12 0 -15 14 -15 66 l0 65 -27 -3 c-27 -3 -28 -6
-31 -65 -2 -47 -7 -63 -17 -63 -12 0 -15 17 -15 80 0 64 3 80 15 80 8 0 15 -5
15 -12z m318 0 c7 -7 12 -38 12 -70 0 -48 3 -58 18 -58 15 -1 15 -2 -2 -15
-12 -9 -23 -12 -29 -6 -6 6 -19 6 -32 1 -59 -23 -74 56 -15 80 18 8 30 20 30
31 0 21 -21 25 -51 9 -14 -8 -19 -7 -19 3 0 21 22 37 50 37 14 0 31 -5 38 -12z
m136 6 c9 -3 16 -12 16 -20 0 -10 -8 -12 -30 -7 -23 4 -30 2 -30 -11 0 -9 4
-16 8 -16 16 0 52 -41 52 -60 0 -30 -41 -53 -74 -41 -14 6 -26 17 -26 26 0 18
5 19 32 4 14 -8 23 -8 31 0 8 8 1 20 -26 45 -41 38 -44 47 -21 70 16 17 41 20
68 10z m-1160 -195 c-4 -8 -95 -26 -167 -34 -75 -8 -117 1 -117 25 0 17 10 19
144 17 79 -1 142 -5 140 -8z m433 -31 c16 -15 23 -33 23 -59 0 -55 -26 -81
-88 -87 l-52 -5 0 -53 c0 -53 0 -54 -30 -54 l-30 0 0 140 0 140 77 0 c65 0 80
-3 100 -22z m427 -43 c-15 -23 -34 -34 -34 -19 0 16 23 44 36 44 12 0 12 -4
-2 -25z m-266 -72 c12 -10 22 -29 24 -43 3 -23 0 -25 -51 -30 l-53 -5 20 -25
c18 -23 23 -24 51 -13 25 9 31 9 31 -3 0 -21 -38 -36 -72 -29 -22 5 -34 16
-45 42 -17 41 -11 75 17 103 25 25 51 25 78 3z m114 3 c17 17 48 9 48 -13 0
-11 -7 -13 -24 -9 -33 8 -44 -10 -48 -74 -2 -30 -7 -55 -13 -55 -11 0 -19 129
-10 154 6 14 8 14 19 -1 11 -15 14 -15 28 -2z m100 -36 c-6 -55 5 -90 26 -90
30 0 42 22 42 77 0 40 4 53 15 53 12 0 15 -15 15 -75 0 -71 -1 -75 -22 -74
-13 0 -32 -2 -43 -6 -37 -11 -57 15 -62 88 -5 61 -4 67 13 67 17 0 19 -6 16
-40z m-1296 -80 c19 -87 37 -131 57 -144 40 -26 172 -46 309 -47 l133 -1 -55
-15 c-31 -8 -104 -15 -165 -15 -120 -1 -203 15 -286 57 -40 21 -49 31 -63 72
-9 26 -19 74 -23 106 l-6 58 47 -23 c33 -16 48 -30 52 -48z m589 51 c-6 -5
-41 -19 -80 -31 -128 -39 -335 -40 -335 -1 0 15 16 17 168 18 92 1 183 6 202
11 47 13 56 14 45 3z m379 -141 c20 -7 26 -16 26 -41 0 -26 -3 -30 -17 -24
-97 41 -183 5 -183 -75 0 -49 75 -93 124 -74 23 9 20 34 -4 34 -16 0 -20 7
-20 30 0 29 1 30 50 30 l50 0 0 -65 c0 -71 -5 -76 -82 -92 -74 -15 -159 37
-178 108 -35 128 96 222 234 169z m106 -155 c0 -104 -2 -125 -15 -125 -12 0
-15 20 -15 118 0 65 3 122 7 125 18 19 23 -4 23 -118z m248 76 c3 -39 5 -42
26 -37 16 4 33 -1 50 -15 23 -18 27 -27 24 -67 -4 -59 -38 -88 -92 -78 l-36 7
0 120 c0 92 3 120 13 117 6 -3 13 -24 15 -47z m302 -77 c0 -96 -3 -125 -12
-122 -9 3 -14 37 -16 113 -3 112 0 135 18 135 6 0 10 -46 10 -126z m-1581 36
c32 -8 57 -26 96 -69 92 -99 211 -147 344 -138 42 2 85 7 96 11 11 3 0 -4 -25
-16 -68 -33 -197 -37 -289 -9 -89 27 -183 91 -243 166 -45 55 -66 102 -35 77
6 -5 32 -15 56 -22z m1491 -10 c15 -15 20 -33 20 -76 0 -34 4 -53 10 -49 6 3
10 1 10 -4 0 -6 -3 -11 -7 -12 -81 -9 -103 -7 -113 11 -14 27 1 54 40 70 33
14 37 22 16 39 -11 9 -20 10 -35 1 -17 -9 -21 -8 -21 4 0 16 26 35 48 36 6 0
21 -9 32 -20z m-291 -16 c28 -36 27 -79 -4 -109 -31 -31 -66 -32 -101 -1 -37
31 -39 90 -5 117 35 28 85 25 110 -7z"/>
<path d="M1247 1284 c-17 -17 -5 -31 26 -30 21 1 32 7 32 16 0 16 -45 26 -58
14z"/>
<path d="M1670 1215 c-6 -8 -9 -19 -5 -25 11 -19 33 -10 37 15 6 28 -12 34
-32 10z"/>
<path d="M1016 1034 c-8 -30 -7 -31 14 -34 32 -5 48 1 53 19 6 24 -10 41 -39
41 -15 0 -24 -8 -28 -26z"/>
<path d="M1227 954 c-17 -17 -5 -34 24 -34 24 0 30 4 27 18 -3 17 -38 29 -51
16z"/>
<path d="M1542 618 c-7 -7 -12 -31 -12 -55 0 -38 3 -43 23 -43 32 0 47 18 47
57 0 22 -6 36 -19 43 -24 13 -24 13 -39 -2z"/>
<path d="M1695 554 c-12 -12 -13 -19 -5 -29 16 -20 40 -7 40 21 0 28 -12 31
-35 8z"/>
<path d="M1349 594 c-12 -32 11 -74 41 -74 40 0 66 60 38 88 -7 7 -25 12 -40
12 -22 0 -31 -6 -39 -26z"/>
</g>
</svg>
